<?xml version="1.0" encoding="iso-8859-1"?>
<!-- Generator: Adobe Illustrator 19.0.0, SVG Export Plug-In . SVG Version: 6.00 Build 0)  -->
<svg xmlns="http://www.w3.org/2000/svg" xmlns:xlink="http://www.w3.org/1999/xlink" version="1.1" id="Capa_1" x="0px" y="0px" viewBox="0 0 512.001 512.001" style="enable-background:new 0 0 512.001 512.001;" xml:space="preserve" width="512px" height="512px">
<g>
	<g>
		<path d="M289.626,420.835c-2.972-2.973-7.793-2.973-10.766,0l-22.074,22.074c-5.237,5.229-12.187,8.107-19.572,8.107h-80.851    c-7.279,0-14.407-2.953-19.557-8.103L74.4,380.506c-10.784-10.783-10.784-28.33,0-39.114l62.508-62.508    c2.973-2.972,2.973-7.793,0-10.766c-2.972-2.973-7.793-2.973-10.766,0l-62.508,62.508c-8.099,8.099-12.56,18.868-12.56,30.323    s4.461,22.224,12.56,30.323l62.407,62.407c7.985,7.985,19.037,12.564,30.324,12.564h80.851c11.448,0,22.219-4.46,30.332-12.565    l22.078-22.078C292.599,428.628,292.599,423.808,289.626,420.835z" fill="#FFFFFF"/>
	</g>
</g>
<g>
	<g>
		<path d="M502.38,197.505L360.238,55.364c-12.808-12.807-33.647-12.807-46.454,0l-165.1,165.101    c-6.204,6.204-9.621,14.453-9.621,23.227c0,8.773,3.417,17.023,9.621,23.226l142.141,142.142    c6.404,6.403,14.815,9.605,23.227,9.605c8.412,0,16.823-3.202,23.227-9.606l84.015-84.015c2.973-2.972,2.973-7.793,0-10.766    c-2.972-2.973-7.793-2.973-10.766,0l-84.015,84.015c-6.871,6.869-18.051,6.87-24.921,0L159.451,256.15    c-3.327-3.328-5.161-7.753-5.161-12.46s1.832-9.132,5.161-12.46l165.1-165.101c6.871-6.87,18.05-6.871,24.921,0l142.143,142.143    c3.327,3.327,5.161,7.753,5.161,12.46s-1.832,9.132-5.161,12.46l-59.77,59.771c-2.973,2.972-2.973,7.793,0,10.766    c2.972,2.973,7.793,2.973,10.766,0l59.77-59.771c6.204-6.203,9.621-14.452,9.621-23.226S508.584,203.709,502.38,197.505z" fill="#FFFFFF"/>
	</g>
</g>
<g>
	<g>
		<path d="M78.292,451.017H7.613c-4.204,0-7.613,3.409-7.613,7.613s3.409,7.613,7.613,7.613h70.679c4.204,0,7.613-3.409,7.613-7.613    S82.496,451.017,78.292,451.017z" fill="#FFFFFF"/>
	</g>
</g>
<g>
	<g>
		<path d="M108.744,451.017h-5.074c-4.204,0-7.613,3.409-7.613,7.613s3.409,7.613,7.613,7.613h5.074    c4.204,0,7.613-3.409,7.613-7.613S112.948,451.017,108.744,451.017z" fill="#FFFFFF"/>
	</g>
</g>
<g>
	<g>
		<path d="M102.774,359.267c-2.775-1.765-6.514-1.495-9.01,0.646c-5.246,4.498-1.975,13.401,4.943,13.401    c3.598,0,6.757-2.615,7.46-6.131C106.78,364.12,105.402,360.939,102.774,359.267z" fill="#FFFFFF"/>
	</g>
</g>
<g>
	<g>
		<path d="M91.615,334.557c-5.27,4.481-1.966,13.4,4.949,13.4c3.62,0,6.802-2.654,7.477-6.201    C105.355,334.862,96.978,329.999,91.615,334.557z" fill="#FFFFFF"/>
	</g>
</g>
<g>
	<g>
		<path d="M114.18,345.025c-2.588,2.052-3.581,5.635-2.384,8.717c1.127,2.902,3.972,4.873,7.092,4.873    c3.597,0,6.748-2.603,7.471-6.121C127.751,345.707,119.591,340.733,114.18,345.025z" fill="#FFFFFF"/>
	</g>
</g>
<g>
</g>
<g>
</g>
<g>
</g>
<g>
</g>
<g>
</g>
<g>
</g>
<g>
</g>
<g>
</g>
<g>
</g>
<g>
</g>
<g>
</g>
<g>
</g>
<g>
</g>
<g>
</g>
<g>
</g>
</svg>
